<svg xmlns="http://www.w3.org/2000/svg" viewBox="0 0 32 32" fill="none">
  <rect width="32" height="32" rx="0" fill="#FAF9F7"/>
  <g transform="translate(4, 2)">
    <path d="M12 2 C6 6, 2 14, 2 22 C2 26, 5 28, 10 28 C12 28, 14 27, 15 25 C13 27, 11 26, 10 24 C7 24, 4 20, 5 16 C6 11, 10 7, 16 5 C18 4, 20 5, 20 8 C20 12, 16 16, 12 18 C10 19, 8 18, 8 16 C8 14, 10 12, 13 12 C14 12, 15 13, 14 15" stroke="#8F1D31" stroke-width="1.8" fill="none" stroke-linecap="round"/>
    <path d="M12 20 L12 30" stroke="#8F1D31" stroke-width="1.4" stroke-linecap="round"/>
    <path d="M12 23 C15 21, 17 18, 16 16" stroke="#8F1D31" stroke-width="1" fill="none" stroke-linecap="round"/>
    <path d="M12 25 C9 23, 7 20, 8 18" stroke="#8F1D31" stroke-width="1" fill="none" stroke-linecap="round"/>
  </g>
</svg>
