<svg xmlns="http://www.w3.org/2000/svg" viewBox="0 0 320 80" fill="none">
  <!-- Leaf/botanical mark (Eden) -->
  <g transform="translate(16, 8)">
    <!-- Outer leaf silhouette -->
    <path d="M28 4 C14 12, 4 28, 4 44 C4 56, 12 64, 24 64 C28 64, 32 62, 34 58 C30 62, 26 60, 24 56 C16 56, 10 48, 12 38 C14 26, 24 16, 36 12 C40 10, 44 12, 44 18 C44 26, 36 34, 28 38 C24 40, 20 38, 20 34 C20 30, 24 26, 30 26 C32 26, 34 28, 32 32" stroke="#8F1D31" stroke-width="2" fill="none" stroke-linecap="round"/>
    <!-- Stem -->
    <path d="M28 44 L28 72" stroke="#8F1D31" stroke-width="1.5" stroke-linecap="round"/>
    <!-- Small accent leaf -->
    <path d="M28 54 C34 50, 38 44, 36 40" stroke="#8F1D31" stroke-width="1.2" fill="none" stroke-linecap="round"/>
    <path d="M28 58 C22 54, 18 48, 20 44" stroke="#8F1D31" stroke-width="1.2" fill="none" stroke-linecap="round"/>
  </g>

  <!-- Brand name -->
  <text x="76" y="38" font-family="'Playfair Display', Georgia, serif" font-size="28" font-weight="400" fill="#2E2E2E" letter-spacing="3">EDEN</text>
  <text x="76" y="62" font-family="'Playfair Display', Georgia, serif" font-size="28" font-weight="400" fill="#2E2E2E" letter-spacing="3">RELICS</text>

  <!-- Decorative lines -->
  <line x1="76" y1="42" x2="200" y2="42" stroke="#E1E1E1" stroke-width="0.75"/>

  <!-- Tagline -->
  <text x="208" y="56" font-family="'Work Sans', sans-serif" font-size="7.5" font-weight="400" fill="#8A8785" letter-spacing="2.5">VINTAGE</text>
  <text x="208" y="66" font-family="'Work Sans', sans-serif" font-size="7.5" font-weight="400" fill="#8A8785" letter-spacing="2.5">CLOTHING</text>
</svg>
